<?xml version="1.0" encoding="UTF-8" standalone="no"?>
<!DOCTYPE svg PUBLIC "-//W3C//DTD SVG 1.1//EN" "http://www.w3.org/Graphics/SVG/1.1/DTD/svg11.dtd">
<svg width="100%" height="100%" viewBox="0 0 961 1291" version="1.1" xmlns="http://www.w3.org/2000/svg" xmlns:xlink="http://www.w3.org/1999/xlink" xml:space="preserve" xmlns:serif="http://www.serif.com/" style="fill-rule:evenodd;clip-rule:evenodd;stroke-linejoin:round;stroke-miterlimit:2;">
    <g transform="matrix(1,0,0,1,-401.215,-903.64)">
        <path d="M1147.08,1906.11C1143.25,1917.65 1134.58,1927.07 1123.21,1931.78C1074,1952.16 937.458,1988.74 712.624,1899.99C495.5,1814.36 426.333,1717.57 405.457,1674.99C399.292,1662.49 399.916,1647.74 406.874,1635.7L410.499,1629.41C445.666,1683.53 531.833,1774.03 738.25,1855.45C935.375,1933.24 1071.5,1924.45 1147.08,1906.11Z" style="fill:rgb(200,32,38);fill-rule:nonzero;"/>
        <path d="M1157.71,1858.82L1148.29,1901.82C1147.96,1903.28 1147.58,1904.7 1147.08,1906.11C1071.5,1924.45 935.375,1933.24 738.25,1855.45C531.833,1774.03 445.666,1683.53 410.499,1629.41L434.166,1588.24C557.708,1360.78 747.917,1417.15 747.917,1417.15C747.917,1417.15 853.792,1427.45 1033.17,1521.57C1212.54,1615.7 1157.71,1858.82 1157.71,1858.82Z" style="fill:rgb(221,31,38);fill-rule:nonzero;"/>
        <path d="M1143.98,1333.34L1024.02,1616.88C1017.94,1631.26 1004.19,1640.88 988.566,1641.67C956.982,1643.3 900.774,1642.09 842.898,1620.72C791.565,1601.76 738.898,1566.97 701.066,1504.22C694.566,1493.47 693.315,1480.3 697.774,1468.55L802.815,1192.17L1014.98,1279.97L1143.98,1333.34Z" style="fill:rgb(207,32,39);fill-rule:nonzero;"/>
        <path d="M968.819,1642.18C936.284,1642.18 890.149,1638.17 842.898,1620.72L1014.98,1279.97L1143.98,1333.34L1024.02,1616.88C1017.94,1631.26 1004.19,1640.88 988.566,1641.67C982.767,1641.97 976.135,1642.18 968.819,1642.18Z" style="fill:rgb(193,32,38);fill-rule:nonzero;"/>
        <path d="M983.536,1221.01C819.252,1161.41 702.117,1060.88 704.38,986.349L704.32,986.376C704.32,986.376 671.433,1119.62 765.551,1231.38C859.669,1343.15 1213.57,1452.3 1346.42,1222.23L1346.41,1222.22C1298.19,1278.64 1145.68,1279.84 983.536,1221.01Z" style="fill:rgb(221,31,38);fill-rule:nonzero;"/>
        <path d="M1358.25,1202.2C1355.58,1209.49 1351.58,1216.16 1346.42,1222.24C1298.21,1278.66 1145.67,1279.82 983.541,1220.99C820.791,1161.99 704.333,1062.78 704.333,988.488C704.291,987.78 704.333,987.072 704.375,986.363C704.583,979.447 705.75,972.697 708.083,966.28C735.5,890.78 903.25,882.322 1082.79,947.488C1262.33,1012.61 1385.62,1126.66 1358.25,1202.2Z" style="fill:rgb(237,28,36);fill-rule:nonzero;"/>
        <path d="M1346.42,1222.24C1298.21,1278.66 1145.67,1279.82 983.541,1220.99C820.791,1161.99 704.333,1062.78 704.333,988.488C704.291,987.78 704.333,987.072 704.375,986.363C709.208,1046.49 772.083,1095.2 818.25,1127.4C930.291,1201.07 1079.75,1253.91 1214.25,1257.91C1259.83,1257.91 1311.29,1254.95 1346.42,1222.24Z" style="fill:rgb(239,65,74);fill-rule:nonzero;"/>
        <path d="M752.249,1914.7L671.416,2096.07L598.291,2189.82L594.958,2194.11L604.749,2076.49L683.041,1887.86L683.083,1887.86C692.624,1891.95 702.458,1895.99 712.624,1899.99C714.624,1900.78 716.624,1901.57 718.625,1902.32C730.083,1906.74 741.292,1910.86 752.249,1914.7Z" style="fill:rgb(189,190,192);fill-rule:nonzero;"/>
        <path d="M598.291,2189.82L718.625,1902.32C730.083,1906.74 741.292,1910.86 752.249,1914.7L671.416,2096.07L598.291,2189.82Z" style="fill:rgb(140,143,146);fill-rule:nonzero;"/>
    </g>
</svg>
