<?xml version="1.0" encoding="UTF-8" standalone="no"?>
<!DOCTYPE svg PUBLIC "-//W3C//DTD SVG 1.1//EN" "http://www.w3.org/Graphics/SVG/1.1/DTD/svg11.dtd">
<svg width="100%" height="100%" viewBox="0 0 1035 1606" version="1.1" xmlns="http://www.w3.org/2000/svg" xmlns:xlink="http://www.w3.org/1999/xlink" xml:space="preserve" xmlns:serif="http://www.serif.com/" style="fill-rule:evenodd;clip-rule:evenodd;stroke-linejoin:round;stroke-miterlimit:2;">
    <g transform="matrix(1,0,0,1,-1822.53,-745.999)">
        <path d="M2643.46,1892.75C2606,2006.8 2419.67,2026.25 2209.34,1964.17C2199.5,1961.25 2189.59,1958.17 2179.67,1954.92C2169.54,1951.63 2159.54,1948.13 2149.67,1944.55C2142.5,1941.92 2135.42,1939.25 2128.42,1936.5C2083,1918.71 2040.63,1898.05 2002.71,1875.46C1876.84,1800.42 1800.46,1703.92 1828.21,1619.38C1867.38,1500.05 2099.34,1449.75 2321.58,1522.71C2327.79,1524.75 2333.96,1526.88 2340.04,1529.05C2490.21,1583.38 2599.34,1685.5 2636.29,1781.67C2651.42,1820.92 2654.5,1859.13 2643.46,1892.75Z" style="fill:rgb(221,31,38);fill-rule:nonzero;"/>
        <path d="M2426.49,1998.93C2361.6,1998.93 2287.11,1987.13 2209.34,1964.17C2199.5,1961.25 2189.59,1958.17 2179.67,1954.92C2178.79,1954.64 2177.92,1954.35 2177.05,1954.06C2175.34,1953.5 2173.63,1952.92 2171.92,1952.34C2169.05,1951.38 2166.19,1950.4 2163.34,1949.42C2158.76,1947.82 2154.2,1946.19 2149.67,1944.55C2142.5,1941.92 2135.42,1939.25 2128.42,1936.5C2083,1918.71 2040.63,1898.05 2002.71,1875.46C2064.41,1883.24 2122.54,1886.69 2176.9,1886.69C2390.37,1886.69 2546.13,1833.61 2636.29,1781.67C2645.33,1805.13 2650.07,1828.21 2650.06,1850.17C2650.06,1864.95 2647.9,1879.23 2643.46,1892.75C2619.85,1964.63 2537.11,1998.93 2426.49,1998.93Z" style="fill:rgb(209,32,39);fill-rule:nonzero;"/>
        <path d="M2675.26,1053.91L2509.42,1609.29C2501.09,1637.16 2475.51,1656.24 2446.42,1656.53C2390.38,1657.12 2343.09,1652.2 2303.26,1643.95C2208.21,1624.28 2155.67,1585.53 2128.26,1556.45C2110.42,1537.58 2105.8,1509.78 2115.92,1485.87L2342.92,948.826L2545.01,1012.74L2675.26,1053.91Z" style="fill:rgb(207,32,39);fill-rule:nonzero;"/>
        <path d="M2437.49,1656.58C2385.33,1656.58 2340.95,1651.76 2303.26,1643.95L2545.01,1012.74L2675.26,1053.91L2509.42,1609.29C2501.09,1637.16 2475.51,1656.24 2446.42,1656.53C2443.42,1656.57 2440.44,1656.58 2437.49,1656.58Z" style="fill:rgb(193,32,38);fill-rule:nonzero;"/>
        <path d="M2855.88,980.546C2852.54,991.629 2843.5,1000.42 2829.71,1006.88C2776.88,1031.84 2654.71,1023 2520.67,980.421C2385.54,937.504 2279.25,873.254 2250.34,821.838C2243.09,808.963 2240.71,796.921 2243.96,786.171C2260.09,732.546 2410.17,732.629 2579.17,786.296C2748.17,839.963 2872.04,926.921 2855.88,980.546Z" style="fill:rgb(237,28,36);fill-rule:nonzero;"/>
        <path d="M2855.88,980.546L2837.17,1037.75L2837.17,1037.88L2833.79,1048.13C2809.17,1096.13 2663.79,1094.21 2500.88,1042.46C2331.88,988.796 2208,901.838 2224.13,848.213L2243.96,786.171C2240.71,796.921 2243.09,808.963 2250.34,821.838C2279.25,873.254 2385.54,937.504 2520.67,980.421C2654.71,1023 2776.88,1031.84 2829.71,1006.88C2843.5,1000.42 2852.54,991.629 2855.88,980.546Z" style="fill:rgb(221,31,38);fill-rule:nonzero;"/>
        <path d="M2209.34,1964.17L2128.42,2195.88L2022.34,2351.75L2042.92,2157.63L2128.42,1936.5C2142.63,1942.09 2157.13,1947.38 2171.92,1952.34C2174.5,1953.21 2177.09,1954.09 2179.67,1954.92C2189.59,1958.17 2199.5,1961.25 2209.34,1964.17Z" style="fill:rgb(189,190,192);fill-rule:nonzero;"/>
        <path d="M2022.34,2351.75L2171.92,1952.34C2174.5,1953.21 2177.09,1954.09 2179.67,1954.92C2189.59,1958.17 2199.5,1961.25 2209.34,1964.17L2128.42,2195.88L2022.34,2351.75Z" style="fill:rgb(140,143,146);fill-rule:nonzero;"/>
    </g>
</svg>
