<?xml version="1.0" encoding="UTF-8" standalone="no"?>
<!DOCTYPE svg PUBLIC "-//W3C//DTD SVG 1.1//EN" "http://www.w3.org/Graphics/SVG/1.1/DTD/svg11.dtd">
<svg width="100%" height="100%" viewBox="0 0 969 1189" version="1.1" xmlns="http://www.w3.org/2000/svg" xmlns:xlink="http://www.w3.org/1999/xlink" xml:space="preserve" xmlns:serif="http://www.serif.com/" style="fill-rule:evenodd;clip-rule:evenodd;stroke-linejoin:round;stroke-miterlimit:2;">
    <g transform="matrix(1,0,0,1,-3452.26,-954.631)">
        <path d="M4161.93,1993.25C3998.26,2062.96 3824.43,2034.16 3733.51,1932.75C3714.97,1912.08 3699.89,1888.46 3689.05,1862C3624.89,1705.62 3732.55,1510.83 3929.55,1426.96C4115.3,1347.87 4314.09,1395.58 4390.01,1532.37C4394.59,1540.66 4398.76,1549.25 4402.43,1558.2C4466.59,1714.58 4358.93,1909.37 4161.93,1993.25Z" style="fill:rgb(221,31,38);fill-rule:nonzero;"/>
        <path d="M3979.83,2031.48C3880.39,2031.48 3790.61,1996.44 3733.51,1932.75C3782.84,1954.16 3839.24,1965.43 3898.74,1965.43C3964.37,1965.43 4033.75,1951.72 4101.59,1922.83C4282.8,1845.71 4396.18,1684.33 4390.01,1532.37C4394.59,1540.66 4398.76,1549.25 4402.43,1558.2C4415.02,1588.9 4421,1621.07 4420.98,1653.6C4420.9,1763 4353,1876.36 4240.98,1950.72L4240.97,1950.71C4231.3,1957.12 4221.34,1963.25 4211.01,1969.04C4195.68,1977.7 4179.64,1985.66 4162.97,1992.79L4162.98,1992.8C4162.63,1992.95 4162.28,1993.1 4161.93,1993.25C4101.04,2019.18 4038.74,2031.48 3979.83,2031.48Z" style="fill:rgb(209,32,39);fill-rule:nonzero;"/>
        <path d="M4135.47,1577.62C4118.64,1626.41 4092.26,1659.7 4062.43,1682.25C4008.97,1722.66 3944.51,1728.62 3904.3,1727.54C3881.26,1726.91 3860.09,1714.71 3848.05,1695L3683.34,1425.46L3835.89,1344.79L3965.72,1276.12L4127.68,1517.21C4139.64,1534.96 4142.43,1557.37 4135.47,1577.62Z" style="fill:rgb(207,32,39);fill-rule:nonzero;"/>
        <path d="M4062.43,1682.25L3835.89,1344.79L3965.72,1276.12L4127.68,1517.21C4135.34,1528.58 4139.24,1541.86 4139.22,1555.27C4139.21,1562.79 4137.97,1570.34 4135.47,1577.62C4118.64,1626.41 4092.26,1659.7 4062.43,1682.25Z" style="fill:rgb(193,32,38);fill-rule:nonzero;"/>
        <path d="M3801.97,1341.51C3671.39,1403.18 3536.39,1392.72 3479.64,1321.89C3473.76,1314.6 3468.76,1306.68 3464.68,1298.1C3463.93,1296.6 3463.22,1295.05 3462.55,1293.47C3461.43,1290.89 3460.43,1288.26 3459.51,1285.6L3459.47,1285.55C3426.22,1190.6 3510.89,1062.39 3653.26,995.137C3797.47,927.054 3947.05,946.887 3990.76,1038.93C3990.76,1038.93 3990.8,1039.01 3990.85,1039.14C3990.89,1039.22 3990.93,1039.3 3990.97,1039.47C3991.6,1040.68 3992.14,1041.89 3992.68,1043.14C3993.97,1046.18 3995.18,1049.26 3996.22,1052.39C3996.22,1052.47 3996.26,1052.55 3996.3,1052.68C3999.1,1061.05 4001.01,1069.68 4002.01,1078.47C4012.68,1169.43 3931.05,1280.51 3801.97,1341.51Z" style="fill:rgb(237,28,36);fill-rule:nonzero;"/>
        <path d="M3828.39,1405.16C3685.05,1472.87 3536.34,1453.66 3491.68,1363L3491.64,1362.91L3485.55,1348.25L3485.43,1347.91L3464.68,1298.08C3468.76,1306.66 3473.76,1314.58 3479.64,1321.87C3536.39,1392.71 3671.39,1403.16 3801.97,1341.5C3931.05,1280.5 4012.68,1169.41 4002.01,1078.46C4001.01,1069.66 3999.09,1061.04 3996.3,1052.66C4000.93,1064.16 4007.76,1081.08 4013.59,1095.71C4019.47,1110.25 4024.34,1122.54 4025.3,1125.16C4025.34,1125.29 4025.39,1125.41 4025.43,1125.54L4025.43,1125.58C4049.01,1219.25 3965.43,1340.46 3828.39,1405.16Z" style="fill:rgb(221,31,38);fill-rule:nonzero;"/>
        <path d="M4340.72,2109.29L4326.01,2143.12L4262.76,2143.12L4162.97,1992.79C4179.64,1985.66 4195.68,1977.7 4211.01,1969.04C4221.34,1963.25 4231.3,1957.12 4240.97,1950.71L4340.72,2109.29Z" style="fill:rgb(189,190,192);fill-rule:nonzero;"/>
        <path d="M4326.01,2143.12L4211.01,1969.04C4221.34,1963.25 4231.3,1957.12 4240.97,1950.71L4340.72,2109.29L4326.01,2143.12Z" style="fill:rgb(140,143,146);fill-rule:nonzero;"/>
        <path d="M3801.97,1341.51C3671.39,1403.18 3536.39,1392.72 3479.64,1321.89C3519.6,1364.05 3580.55,1376.01 3636.51,1373.85C3749.35,1367.72 3859.26,1314.14 3935.85,1231.39C3973.3,1189.47 4003.85,1136.35 4002.01,1078.47C4012.68,1169.43 3931.05,1280.51 3801.97,1341.51Z" style="fill:rgb(239,65,74);fill-rule:nonzero;"/>
    </g>
</svg>
