<?xml version="1.0" encoding="UTF-8" standalone="no"?>
<!DOCTYPE svg PUBLIC "-//W3C//DTD SVG 1.1//EN" "http://www.w3.org/Graphics/SVG/1.1/DTD/svg11.dtd">
<svg width="100%" height="100%" viewBox="0 0 877 1329" version="1.1" xmlns="http://www.w3.org/2000/svg" xmlns:xlink="http://www.w3.org/1999/xlink" xml:space="preserve" xmlns:serif="http://www.serif.com/" style="fill-rule:evenodd;clip-rule:evenodd;stroke-linejoin:round;stroke-miterlimit:2;">
    <g transform="matrix(1,0,0,1,-443.553,-2925.96)">
        <path d="M1227.12,3874.98C1227.12,3878.04 1227.08,3881.06 1226.94,3884.12C1221.09,4058.28 1048.04,4198.03 835.338,4198.03C817.992,4198.03 800.876,4197.1 784.134,4195.29C748.837,4191.49 715.071,4183.83 683.346,4172.8C542.438,4123.86 443.553,4008.93 443.553,3874.98C443.553,3873.22 443.553,3871.41 443.645,3869.65C446.335,3729.94 556.585,3611.86 709.088,3569.09L672.307,3738.8C665.535,3770.16 675.878,3802.86 699.625,3824.38C748.141,3868.39 845.589,3922.57 997.443,3857.22C1029.03,3843.67 1050.18,3813.38 1051.99,3779.11L1060.75,3610.74C1161.4,3669.18 1227.12,3765.75 1227.12,3874.98Z" style="fill:rgb(221,31,38);fill-rule:nonzero;"/>
        <path d="M835.338,4198.03C817.992,4198.03 800.876,4197.1 784.134,4195.29C763.586,4193.06 743.55,4189.54 724.162,4184.76C710.201,4181.42 696.611,4177.39 683.346,4172.8C542.438,4123.86 443.553,4008.93 443.553,3874.98C443.553,3873.22 443.553,3871.41 443.645,3869.65C490.816,3947.24 570.546,4009.07 668.086,4042.97C703.939,4055.45 742.158,4064.08 782.046,4068.39C801.016,4070.43 820.358,4071.5 839.977,4071.5C1006.35,4071.5 1151.24,3995.9 1226.94,3884.12C1221.09,4058.28 1048.04,4198.03 835.338,4198.03Z" style="fill:rgb(209,32,39);fill-rule:nonzero;"/>
        <path d="M784.134,4195.29L776.944,4221.73C772.908,4236.76 760.849,4248.49 745.59,4251.69C731.443,4254.66 719.616,4254.52 709.877,4252.67C708.763,4252.48 707.696,4252.25 706.63,4252.02C684.319,4246.68 670.915,4223.77 676.342,4201.51L683.346,4172.8C696.611,4177.39 710.201,4181.42 724.162,4184.76C743.55,4189.54 763.586,4193.06 784.134,4195.29Z" style="fill:rgb(189,190,192);fill-rule:nonzero;"/>
        <path d="M724.53,4254C719.197,4254 714.319,4253.51 709.877,4252.67L724.162,4184.76C743.55,4189.54 763.586,4193.06 784.134,4195.29L776.944,4221.73C772.908,4236.76 760.849,4248.49 745.59,4251.69C737.897,4253.31 730.889,4254 724.53,4254Z" style="fill:rgb(140,143,146);fill-rule:nonzero;"/>
        <path d="M1064.79,3533.56L1060.75,3610.74L1051.99,3779.11C1050.18,3813.38 1029.03,3843.67 997.443,3857.22C927.22,3887.46 868.641,3892.09 821.145,3884.02C765.951,3874.66 725.692,3848.03 699.625,3824.38C675.878,3802.86 665.535,3770.16 672.307,3738.8L709.088,3569.09L726.527,3488.48C773.001,3515.94 827.129,3535.23 885.987,3543.54C898.139,3545.25 910.524,3546.55 923.092,3547.29C972.721,3550.26 1020.54,3545.25 1064.79,3533.56Z" style="fill:rgb(207,32,39);fill-rule:nonzero;"/>
        <path d="M863.377,3887.53C848.432,3887.53 834.361,3886.27 821.145,3884.02L885.981,3543.57C895.123,3544.86 904.376,3545.89 913.732,3546.64C916.84,3546.89 919.96,3547.11 923.092,3547.29C923.386,3547.31 923.677,3547.33 923.971,3547.35C933.045,3547.87 942.057,3548.13 950.999,3548.13L951.081,3548.13C990.707,3548.13 1028.92,3543.04 1064.79,3533.56L1060.75,3610.74L1051.99,3779.11C1050.18,3813.38 1029.03,3843.67 997.443,3857.22C946.76,3879.04 902.14,3887.53 863.377,3887.53Z" style="fill:rgb(193,32,38);fill-rule:nonzero;"/>
        <path d="M1319.24,3259.77C1311.35,3390.34 1206.48,3496.13 1064.79,3533.56C1020.54,3545.25 972.721,3550.26 923.092,3547.29C860.523,3543.54 802.222,3527.44 751.619,3502.12C742.993,3497.85 734.644,3493.31 726.527,3488.48C622.911,3427.35 557.605,3325.54 564.284,3214.37C574.627,3042.99 751.945,2914.28 960.43,2926.8C1133.67,2937.24 1273.88,3041.97 1310.42,3175.36C1317.85,3202.49 1321,3230.83 1319.24,3259.77Z" style="fill:rgb(237,28,36);fill-rule:nonzero;"/>
        <path d="M1227,3195.58C1224.9,3230.42 1196.91,3258.65 1159.1,3268.64C1147.3,3271.76 1134.54,3273.1 1121.29,3272.3C1101.76,3271.13 1083.81,3265.46 1068.84,3256.61C1041.2,3240.3 1023.77,3213.13 1025.55,3183.47C1028.31,3137.74 1075.63,3103.39 1131.26,3106.74C1186.89,3110.09 1229.75,3149.87 1227,3195.58Z" style="fill:rgb(239,65,74);fill-rule:nonzero;"/>
        <path d="M951.014,3548.13L950.999,3548.13C942.057,3548.13 933.045,3547.87 923.971,3547.35C923.677,3547.33 923.386,3547.31 923.092,3547.29C919.961,3547.11 916.842,3546.89 913.732,3546.64C904.376,3545.89 895.123,3544.86 885.981,3543.57C837.444,3536.71 792.07,3522.36 751.619,3502.12C1115.85,3498.04 1257.92,3296.28 1310.42,3175.36C1316.51,3197.62 1319.73,3220.69 1319.72,3244.23C1319.71,3249.39 1319.55,3254.57 1319.24,3259.77C1311.35,3390.34 1206.48,3496.13 1064.79,3533.56C1028.9,3543.04 990.659,3548.13 951.014,3548.13Z" style="fill:rgb(229,30,37);fill-rule:nonzero;"/>
    </g>
</svg>
