<?xml version="1.0" encoding="UTF-8" standalone="no"?>
<!DOCTYPE svg PUBLIC "-//W3C//DTD SVG 1.1//EN" "http://www.w3.org/Graphics/SVG/1.1/DTD/svg11.dtd">
<svg width="100%" height="100%" viewBox="0 0 1479 1058" version="1.1" xmlns="http://www.w3.org/2000/svg" xmlns:xlink="http://www.w3.org/1999/xlink" xml:space="preserve" xmlns:serif="http://www.serif.com/" style="fill-rule:evenodd;clip-rule:evenodd;stroke-linejoin:round;stroke-miterlimit:2;">
    <g transform="matrix(1,0,0,1,-1600.79,-3061.23)">
        <path d="M1841.93,3821.6C1850.08,3839.79 1859.34,3857.83 1869.67,3875.73C1875.75,3886.25 1882.07,3896.48 1888.58,3906.37C2002.25,4079.14 2183.22,4162.41 2307.99,4095.83C2309.82,4094.87 2311.65,4093.85 2313.49,4092.79C2445.39,4016.66 2460.54,3795.98 2347.35,3599.91C2248.98,3429.6 2086.05,3333.83 1958.49,3361.67C1939.24,3365.82 1920.81,3372.81 1903.54,3382.8C1783.65,3452.03 1760.2,3640.63 1841.93,3821.6Z" style="fill:rgb(221,31,38);fill-rule:nonzero;"/>
        <path d="M1841.93,3821.6C1850.08,3839.79 1859.34,3857.83 1869.67,3875.73C1875.75,3886.25 1882.07,3896.48 1888.58,3906.37C2002.25,4079.14 2183.22,4162.41 2307.99,4095.83C2188.29,4121.88 2037.47,4039.24 1938.13,3888.23C1931.62,3878.34 1925.3,3868.11 1919.22,3857.59C1908.89,3839.69 1899.63,3821.65 1891.48,3803.46C1809.75,3622.49 1833.2,3433.89 1953.09,3364.66C1954.87,3363.65 1956.71,3362.63 1958.49,3361.67C1939.24,3365.82 1920.81,3372.81 1903.54,3382.8C1783.65,3452.03 1760.2,3640.63 1841.93,3821.6Z" style="fill:rgb(200,32,38);fill-rule:nonzero;"/>
        <path d="M2804.87,3399.93C2862.14,3522.38 2939.19,3613.61 2997.81,3635.66C3010.06,3640.29 3021.5,3641.88 3031.82,3640.1C3035.68,3639.42 3039.4,3638.26 3042.97,3636.62C3047.07,3634.69 3050.83,3632.18 3054.21,3629C3098.55,3588.33 3082.48,3448.66 3014.02,3302.13C2940.3,3144.42 2833.68,3038.42 2775.93,3065.44C2773.75,3066.45 2771.63,3067.66 2769.65,3069.06L2769.41,3069.2C2759.81,3075.91 2752.57,3086.62 2747.65,3100.66C2727,3159.76 2747.65,3277.43 2804.87,3399.93Z" style="fill:rgb(237,28,36);fill-rule:nonzero;"/>
        <path d="M2731.44,3434.23C2805.21,3591.95 2911.79,3697.94 2969.54,3670.98L2971.76,3669.86L3031.82,3640.1C3021.5,3641.88 3010.06,3640.29 2997.81,3635.66C2939.19,3613.61 2862.14,3522.38 2804.87,3399.93C2747.65,3277.43 2727,3159.76 2747.65,3100.66C2752.57,3086.62 2759.81,3075.91 2769.41,3069.2L2702.54,3099.74C2644.79,3126.71 2657.72,3276.51 2731.44,3434.23Z" style="fill:rgb(221,31,38);fill-rule:nonzero;"/>
        <path d="M1600.79,3935.36C1600.79,3935.36 1603.01,3960.74 1620.62,3980.72C1633.94,3995.82 1656.08,4007.83 1692.75,4003.44L1888.58,3906.37C1882.07,3896.48 1875.75,3886.25 1869.67,3875.73C1867.5,3871.97 1865.38,3868.21 1863.35,3864.44C1855.49,3850.26 1848.39,3835.98 1841.93,3821.6L1600.79,3935.36Z" style="fill:rgb(189,190,192);fill-rule:nonzero;"/>
        <path d="M1677.99,4004.35C1649.97,4004.35 1632.05,3993.67 1620.62,3980.72L1863.35,3864.44C1865.38,3868.21 1867.5,3871.97 1869.67,3875.73C1875.75,3886.25 1882.07,3896.48 1888.58,3906.37L1692.75,4003.44C1687.54,4004.06 1682.63,4004.35 1677.99,4004.35Z" style="fill:rgb(140,143,146);fill-rule:nonzero;"/>
        <path d="M2158.09,3546.6C2158.42,3580.42 2163.54,3627.31 2183.17,3676.33C2204.59,3729.88 2243.34,3786.04 2312.09,3830.67C2335.1,3845.63 2364.63,3846.21 2388.12,3832.07L2815.83,3575.21C2786.01,3536.51 2756.77,3488.41 2731.44,3434.23C2730.24,3431.72 2729.08,3429.16 2727.97,3426.66C2707.46,3381.69 2691.93,3337.55 2681.6,3296.83L2204.21,3478.67C2176.08,3489.38 2157.8,3516.49 2158.09,3546.6Z" style="fill:rgb(207,32,39);fill-rule:nonzero;"/>
        <path d="M2183.17,3676.33C2163.54,3627.31 2158.42,3580.42 2158.09,3546.6C2158.08,3546.36 2158.08,3546.13 2158.08,3545.89C2158.08,3516.07 2176.3,3489.29 2204.21,3478.67L2681.6,3296.83C2691.93,3337.55 2707.46,3381.69 2727.97,3426.66L2183.17,3676.33Z" style="fill:rgb(193,32,38);fill-rule:nonzero;"/>
    </g>
</svg>
