<?xml version="1.0" encoding="UTF-8" standalone="no"?>
<!DOCTYPE svg PUBLIC "-//W3C//DTD SVG 1.1//EN" "http://www.w3.org/Graphics/SVG/1.1/DTD/svg11.dtd">
<svg width="100%" height="100%" viewBox="0 0 1325 1299" version="1.1" xmlns="http://www.w3.org/2000/svg" xmlns:xlink="http://www.w3.org/1999/xlink" xml:space="preserve" xmlns:serif="http://www.serif.com/" style="fill-rule:evenodd;clip-rule:evenodd;stroke-linejoin:round;stroke-miterlimit:2;">
    <g transform="matrix(1,0,0,1,-3274.45,-2940.71)">
        <path d="M4250.76,3473.74L4090.52,3676.89L4090.52,3676.93L3973.36,3825.42C3957.69,3845.24 3932.2,3854.6 3907.41,3849.63C3838.1,3835.64 3788.06,3811.41 3752.03,3783.25C3688.59,3733.68 3668.39,3671.77 3662.24,3631.47C3658.56,3607.51 3668.03,3583.38 3687.14,3568.42L3852.55,3438.93L4046.39,3287.15C4069.53,3331.12 4102.85,3372.83 4144.79,3408.11C4156.03,3417.63 4167.94,3426.63 4180.39,3435.13C4203.38,3450.75 4226.99,3463.6 4250.76,3473.74Z" style="fill:rgb(207,32,39);fill-rule:nonzero;"/>
        <path d="M3920.72,3850.94L3920.63,3850.94C3916.39,3850.94 3912.12,3850.54 3907.87,3849.72C3907.83,3849.71 3907.79,3849.7 3907.75,3849.69C3907.64,3849.67 3907.52,3849.65 3907.41,3849.63C3894.34,3846.99 3881.96,3843.99 3870.23,3840.67C3870.21,3840.66 3870.19,3840.66 3870.18,3840.65C3870.05,3840.62 3869.9,3840.57 3869.78,3840.54C3869.64,3840.5 3869.5,3840.46 3869.35,3840.42C3869.34,3840.41 3869.34,3840.41 3869.33,3840.41C3819.27,3826.12 3781.09,3805.96 3752.03,3783.25L4144.77,3408.13C4156.04,3417.62 4167.92,3426.64 4180.39,3435.13C4203.38,3450.75 4226.99,3463.6 4250.76,3473.74L4090.52,3676.89L4090.52,3676.93L3973.36,3825.42C3973.22,3825.59 3973.09,3825.75 3972.96,3825.92C3972.92,3825.97 3972.88,3826.01 3972.85,3826.06C3959.98,3841.93 3940.73,3850.92 3920.72,3850.94Z" style="fill:rgb(193,32,38);fill-rule:nonzero;"/>
        <path d="M3564.15,4004.54L3322.81,4239.25C3309.58,4235.42 3299.2,4226.45 3291.48,4217.09C3279.93,4203.07 3274.45,4188.11 3274.45,4188.11L3512.46,3952.69C3520.84,3962.36 3529.61,3971.76 3538.81,3980.92C3546.92,3989.03 3555.37,3996.9 3564.15,4004.54Z" style="fill:rgb(189,190,192);fill-rule:nonzero;"/>
        <path d="M3322.81,4239.25C3309.58,4235.42 3299.2,4226.45 3291.48,4217.09L3538.8,3980.93C3541.39,3983.52 3544.02,3986.08 3546.68,3988.61C3551.37,3993.1 3556.17,3997.51 3561.07,4001.84C3561.09,4001.85 3561.1,4001.86 3561.11,4001.87C3561.22,4001.97 3561.33,4002.07 3561.44,4002.17C3561.49,4002.21 3561.55,4002.26 3561.6,4002.3C3561.67,4002.36 3561.74,4002.42 3561.8,4002.49C3561.89,4002.56 3561.98,4002.64 3562.06,4002.71C3562.09,4002.74 3562.13,4002.77 3562.16,4002.8C3562.82,4003.38 3563.48,4003.96 3564.15,4004.54L3322.81,4239.25Z" style="fill:rgb(140,143,146);fill-rule:nonzero;"/>
        <path d="M4571.7,3403.8C4514.18,3503.46 4380.18,3528.95 4250.76,3473.74C4226.99,3463.6 4203.38,3450.75 4180.39,3435.13C4152.94,3416.45 4128.35,3395.15 4106.93,3372.08C4082.41,3345.65 4062.05,3316.91 4046.39,3287.15C4001.86,3202.76 3994.7,3110.27 4035.7,3039.23C4103.83,2921.29 4279.03,2907.23 4427.05,3007.91C4429.44,3009.55 4431.83,3011.2 4434.18,3012.88C4577.11,3114.3 4638.7,3287.74 4571.7,3403.8Z" style="fill:rgb(237,28,36);fill-rule:nonzero;"/>
        <path d="M4383.73,3502.34C4341.11,3502.34 4295.66,3492.9 4250.76,3473.74C4226.99,3463.6 4203.38,3450.75 4180.39,3435.13C4167.92,3426.64 4156.04,3417.62 4144.77,3408.13C4131.25,3396.73 4118.61,3384.67 4106.93,3372.08C4176.49,3397.68 4243.75,3409.04 4301.25,3409.04C4392.07,3409.04 4458.54,3380.71 4471.3,3335.39C4490.96,3265.53 4481.32,3152.6 4434.18,3012.88C4537.88,3086.47 4598.77,3197.97 4598.79,3297.96C4598.79,3335.78 4590.09,3371.95 4571.7,3403.8C4534.14,3468.88 4463.95,3502.34 4383.73,3502.34Z" style="fill:rgb(229,30,37);fill-rule:nonzero;"/>
        <path d="M4093.81,3990.4C4091.26,3994.83 4088.6,3999.17 4085.78,4003.44C3989.25,4150.76 3767.46,4160.78 3590.38,4025.88C3581.34,4018.99 3572.6,4011.86 3564.15,4004.54C3545.43,3988.25 3528.2,3970.86 3512.46,3952.69C3405.28,3828.64 3369.41,3665.93 3427.68,3544.77C3432.61,3534.48 3438.25,3524.49 3444.56,3514.86C3525.69,3391.04 3695.33,3364.21 3852.55,3438.93L3687.14,3568.42C3668.03,3583.38 3658.56,3607.51 3662.24,3631.47C3671.87,3694.63 3716.08,3811.01 3907.41,3849.63C3932.2,3854.6 3957.69,3845.24 3973.36,3825.42L4090.52,3676.93C4140.84,3783.96 4145.34,3900.53 4093.81,3990.4Z" style="fill:rgb(221,31,38);fill-rule:nonzero;"/>
        <path d="M3852.74,4120.84C3767.21,4120.84 3673.84,4089.46 3590.38,4025.88C3581.34,4018.99 3572.6,4011.86 3564.15,4004.54C3563.48,4003.96 3562.82,4003.38 3562.16,4002.8C3562.13,4002.77 3562.09,4002.74 3562.06,4002.71C3561.98,4002.64 3561.89,4002.56 3561.8,4002.49C3561.74,4002.43 3561.67,4002.36 3561.6,4002.3C3561.55,4002.26 3561.49,4002.21 3561.44,4002.17C3561.33,4002.07 3561.22,4001.97 3561.11,4001.87C3561.1,4001.86 3561.09,4001.85 3561.07,4001.84C3556.17,3997.51 3551.37,3993.09 3546.68,3988.61C3544.02,3986.08 3541.39,3983.52 3538.8,3980.93C3530.03,3972.2 3521.64,3963.22 3513.63,3954.04C3513.53,3953.92 3513.42,3953.8 3513.32,3953.69C3513.29,3953.65 3513.26,3953.61 3513.23,3953.58C3513.14,3953.48 3513.06,3953.38 3512.97,3953.29C3512.93,3953.23 3512.88,3953.18 3512.84,3953.13C3512.71,3952.98 3512.58,3952.84 3512.46,3952.69C3439.82,3868.61 3399.94,3766.79 3399.91,3672.17C3399.9,3627.18 3408.9,3583.82 3427.68,3544.77C3440.36,3703.21 3514.53,3885.06 3628.25,3980.92C3691.34,4034.12 3779.35,4059.21 3866.31,4059.21C3951.15,4059.22 4035,4035.34 4093.81,3990.4C4091.26,3994.83 4088.6,3999.17 4085.78,4003.44C4034.75,4081.32 3948.68,4120.84 3852.74,4120.84Z" style="fill:rgb(209,32,39);fill-rule:nonzero;"/>
    </g>
</svg>
